<svg width="16" height="22" xmlns="http://www.w3.org/2000/svg">
 <g>
  <g id="svg_2"/>
  <g id="svg_3"/>
  <g id="svg_4"/>
  <g id="svg_5"/>
  <g id="svg_6"/>
  <g id="svg_7"/>
  <g id="svg_8"/>
  <g id="svg_9"/>
  <g id="svg_10"/>
  <g id="svg_11"/>
  <g id="svg_12"/>
  <g id="svg_13"/>
  <g id="svg_14"/>
  <g id="svg_15"/>
  <g id="svg_16"/>
  <circle opacity="0.5" fill="#ffffff" stroke="#ffffff" stroke-width="4" cx="7.973033" cy="7.618067" r="1.449642" id="svg_17"/>
  <g opacity="0.5" id="svg_1">
   <path stroke-width="4" id="svg_19" fill="#576676" d="m15.430572,5.420753c-0.081614,-0.290558 -0.247454,-0.600143 -0.370165,-0.87121c-1.467909,-3.349233 -4.675314,-4.549543 -7.265172,-4.549543c-3.46698,0 -7.285438,2.207065 -7.795234,6.756352v0.929446c0,0.03879 0.014083,0.387235 0.034081,0.56147c0.285782,2.168128 2.087775,4.472297 3.433579,6.640425c1.447896,2.322839 2.950283,4.607871 4.438761,6.891974c0.917841,-1.490559 1.832348,-3.000717 2.729241,-4.452696c0.244482,-0.426096 0.52825,-0.851957 0.772949,-1.258684c0.163085,-0.270764 0.474686,-0.541607 0.617041,-0.793546c1.44783,-2.516597 3.778348,-5.052715 3.778348,-7.550207v-1.025999c0,-0.270772 -0.353497,-1.2194 -0.373429,-1.27779l0,0.000007zm-7.571843,4.665775c-1.019142,0 -2.134634,-0.483735 -2.685245,-1.819815c-0.082035,-0.21266 -0.07541,-0.638896 -0.07541,-0.677933v-0.600152c0,-1.703235 1.523306,-2.477775 2.848504,-2.477775c1.6315,0 2.893269,1.239186 2.893269,2.788073c0,1.548826 -1.349689,2.787601 -2.981117,2.787601z"/>
  </g>
 </g>
</svg>