<svg width="22" height="28" xmlns="http://www.w3.org/2000/svg">
 <g>
  <g id="svg_1">
   <path id="svg_19" fill="#993333" d="m21.288799,6.99706c-0.112598,-0.37505 -0.3414,-0.77466 -0.5107,-1.12455c-2.0252,-4.32316 -6.450299,-5.87251 -10.023399,-5.87251c-4.78322,0 -10.05136,2.84886 -10.7547,8.72104v1.19972c0,0.05007 0.01943,0.49984 0.04702,0.72474c0.39428,2.7986 2.8804,5.7728 4.73714,8.5714c1.99759,2.998301 4.07036,5.9478 6.12394,8.896101c1.2663,-1.924002 2.528,-3.873301 3.7654,-5.747501c0.3373,-0.549999 0.7288,-1.099699 1.0664,-1.624699c0.225,-0.349501 0.654901,-0.6991 0.8513,-1.024302c1.997499,-3.2484 5.212801,-6.521999 5.212801,-9.745739v-1.32435c0,-0.34951 -0.487701,-1.57399 -0.515202,-1.64936l0,0.00001zm-10.446499,6.02254c-1.40606,0 -2.94505,-0.6244 -3.7047,-2.349c-0.11318,-0.2745 -0.10404,-0.82468 -0.10404,-0.87507v-0.774671c0,-2.19852 2.10163,-3.19829 3.92994,-3.19829c2.2509,0 3.9917,1.59953 3.9917,3.59882c0,1.99921 -1.862101,3.59821 -4.1129,3.59821z"/>
  </g>
  <g id="svg_2"/>
  <g id="svg_3"/>
  <g id="svg_4"/>
  <g id="svg_5"/>
  <g id="svg_6"/>
  <g id="svg_7"/>
  <g id="svg_8"/>
  <g id="svg_9"/>
  <g id="svg_10"/>
  <g id="svg_11"/>
  <g id="svg_12"/>
  <g id="svg_13"/>
  <g id="svg_14"/>
  <g id="svg_15"/>
  <g id="svg_16"/>
  <circle fill="#ffffff" stroke="#ffffff" stroke-width="5" cx="11" cy="9.833333" r="2" id="svg_17"/>
 </g>
</svg>