<svg width="16" height="22" xmlns="http://www.w3.org/2000/svg">
 <g>
  <g id="svg_2"/>
  <g id="svg_3"/>
  <g id="svg_4"/>
  <g id="svg_5"/>
  <g id="svg_6"/>
  <g id="svg_7"/>
  <g id="svg_8"/>
  <g id="svg_9"/>
  <g id="svg_10"/>
  <g id="svg_11"/>
  <g id="svg_12"/>
  <g id="svg_13"/>
  <g id="svg_14"/>
  <g id="svg_15"/>
  <g id="svg_16"/>
  <g id="svg_1" opacity="0.5">
   <path d="m15.4306,5.42075c-0.0816,-0.29055 -0.2475,-0.60014 -0.3702,-0.87121c-1.4679,-3.34923 -4.6753,-4.54954 -7.26517,-4.54954c-3.46697,0 -7.285433,2.20707 -7.795229,6.75635v0.92945c0,0.03879 0.014083,0.38723 0.034081,0.56147c0.285782,2.16813 2.087778,4.47233 3.433578,6.64043c1.4479,2.322801 2.95028,4.6079 4.43876,6.891999c0.91784,-1.490599 1.832349,-3.000799 2.72928,-4.4527c0.2444,-0.4261 0.5282,-0.851999 0.7729,-1.258699c0.1631,-0.270801 0.4747,-0.5416 0.6171,-0.7936c1.447801,-2.5166 3.7783,-5.0527 3.7783,-7.55017v-1.026c0,-0.27077 -0.353499,-1.21939 -0.3734,-1.27779l0,0.00001l0,0zm-7.57187,4.66575c-1.01914,0 -2.13464,-0.48371 -2.68525,-1.81979c-0.08203,-0.21266 -0.07541,-0.63889 -0.07541,-0.67793v-0.60015c0,-1.70324 1.52331,-2.47778 2.84851,-2.47778c1.6315,0 2.89322,1.23919 2.89322,2.78808c0,1.54882 -1.34964,2.78757 -2.98107,2.78757l0,0z" fill="#993333" id="svg_19" stroke-width="4"/>
  </g>
  <circle id="svg_17" r="1.449642" cy="7.618067" cx="7.973033" stroke-width="4" stroke="#ffffff" fill="#ffffff" opacity="0.5"/>
 </g>
</svg>