<svg width="22" height="28" xmlns="http://www.w3.org/2000/svg">
 <g>
  <g id="svg_1">
   <path d="m21.288832,6.997055c-0.112661,-0.375046 -0.341433,-0.774658 -0.510689,-1.124542c-2.025248,-4.323166 -6.450377,-5.872513 -10.023464,-5.872513c-4.783194,0 -10.05134,2.848862 -10.754679,8.721039v1.199722c0,0.050064 0.019427,0.499817 0.047023,0.724792c0.39428,2.798538 2.880399,5.772766 4.73714,8.571304c1.99759,2.998337 4.07036,5.947876 6.123952,8.896149c1.266282,-1.923996 2.528004,-3.873276 3.76544,-5.747467c0.337232,-0.550018 0.728717,-1.099716 1.066339,-1.624695c0.225024,-0.349564 0.654911,-0.699112 0.851324,-1.024353c1.997498,-3.248428 5.212738,-6.521957 5.212738,-9.745728v-1.324356c0.000063,-0.349503 -0.487669,-1.57399 -0.515123,-1.649353zm-10.446573,6.022583c-1.406022,0 -2.945006,-0.624466 -3.704659,-2.349045c-0.113176,-0.274521 -0.10404,-0.824677 -0.10404,-0.875061v-0.774673c0,-2.198517 2.10163,-3.198288 3.929965,-3.198288c2.25088,0 3.991714,1.599533 3.991714,3.598816c0,1.999237 -1.862114,3.598251 -4.112979,3.598251z" fill="#576676"/>
  </g>
  <g id="svg_2"/>
  <g id="svg_3"/>
  <g id="svg_4"/>
  <g id="svg_5"/>
  <g id="svg_6"/>
  <g id="svg_7"/>
  <g id="svg_8"/>
  <g id="svg_9"/>
  <g id="svg_10"/>
  <g id="svg_11"/>
  <g id="svg_12"/>
  <g id="svg_13"/>
  <g id="svg_14"/>
  <g id="svg_15"/>
  <g id="svg_16"/>
  <circle id="svg_17" r="2" cy="9.833333" cx="11" stroke-width="5" stroke="#ffffff" fill="#ffffff"/>
 </g>
</svg>